<svg viewBox="0 0 900 900" xmlns="http://www.w3.org/2000/svg" font-family="Georgia, serif">
<rect width="900" height="900" fill="#efe9df"/>
<text x="450.0" y="46" text-anchor="middle" font-size="30" font-weight="bold" fill="#222">World Cup 2026 — model bracket</text>
<text x="450.0" y="72" text-anchor="middle" font-size="14" fill="#888">solid = played · dashed = predicted</text>
<circle cx="450.0" cy="70.0" r="24" fill="#fff" stroke="#333" stroke-width="1.5"/>
<text x="450.0" y="75.0" text-anchor="middle" font-size="13" font-weight="bold" fill="#222">PAR</text>
<circle cx="595.4" cy="98.9" r="24" fill="#fff" stroke="#333" stroke-width="1.5"/>
<text x="595.4" y="103.9" text-anchor="middle" font-size="13" font-weight="bold" fill="#222">FRA</text>
<circle cx="718.7" cy="181.3" r="24" fill="#fff" stroke="#333" stroke-width="1.5"/>
<text x="718.7" y="186.3" text-anchor="middle" font-size="13" font-weight="bold" fill="#222">CAN</text>
<circle cx="801.1" cy="304.6" r="24" fill="#fff" stroke="#333" stroke-width="1.5"/>
<text x="801.1" y="309.6" text-anchor="middle" font-size="13" font-weight="bold" fill="#222">MAR</text>
<circle cx="830.0" cy="450.0" r="24" fill="#fff" stroke="#333" stroke-width="1.5"/>
<text x="830.0" y="455.0" text-anchor="middle" font-size="13" font-weight="bold" fill="#222">POR</text>
<circle cx="801.1" cy="595.4" r="24" fill="#fff" stroke="#333" stroke-width="1.5"/>
<text x="801.1" y="600.4" text-anchor="middle" font-size="13" font-weight="bold" fill="#222">ESP</text>
<circle cx="718.7" cy="718.7" r="24" fill="#fff" stroke="#333" stroke-width="1.5"/>
<text x="718.7" y="723.7" text-anchor="middle" font-size="13" font-weight="bold" fill="#222">USA</text>
<circle cx="595.4" cy="801.1" r="24" fill="#fff" stroke="#333" stroke-width="1.5"/>
<text x="595.4" y="806.1" text-anchor="middle" font-size="13" font-weight="bold" fill="#222">BEL</text>
<circle cx="450.0" cy="830.0" r="24" fill="#fff" stroke="#333" stroke-width="1.5"/>
<text x="450.0" y="835.0" text-anchor="middle" font-size="13" font-weight="bold" fill="#222">BRA</text>
<circle cx="304.6" cy="801.1" r="24" fill="#fff" stroke="#333" stroke-width="1.5"/>
<text x="304.6" y="806.1" text-anchor="middle" font-size="13" font-weight="bold" fill="#222">NOR</text>
<circle cx="181.3" cy="718.7" r="24" fill="#fff" stroke="#333" stroke-width="1.5"/>
<text x="181.3" y="723.7" text-anchor="middle" font-size="13" font-weight="bold" fill="#222">MEX</text>
<circle cx="98.9" cy="595.4" r="24" fill="#fff" stroke="#333" stroke-width="1.5"/>
<text x="98.9" y="600.4" text-anchor="middle" font-size="13" font-weight="bold" fill="#222">ENG</text>
<circle cx="70.0" cy="450.0" r="24" fill="#fff" stroke="#333" stroke-width="1.5"/>
<text x="70.0" y="455.0" text-anchor="middle" font-size="13" font-weight="bold" fill="#222">ARG</text>
<circle cx="98.9" cy="304.6" r="24" fill="#fff" stroke="#333" stroke-width="1.5"/>
<text x="98.9" y="309.6" text-anchor="middle" font-size="13" font-weight="bold" fill="#222">EGY</text>
<circle cx="181.3" cy="181.3" r="24" fill="#fff" stroke="#333" stroke-width="1.5"/>
<text x="181.3" y="186.3" text-anchor="middle" font-size="13" font-weight="bold" fill="#222">SUI</text>
<circle cx="304.6" cy="98.9" r="24" fill="#fff" stroke="#333" stroke-width="1.5"/>
<text x="304.6" y="103.9" text-anchor="middle" font-size="13" font-weight="bold" fill="#222">COL</text>
<line x1="450.0" y1="70.0" x2="508.5" y2="155.8" stroke="#333" stroke-width="1.6"/>
<line x1="595.4" y1="98.9" x2="508.5" y2="155.8" stroke="#333" stroke-width="1.6"/>
<circle cx="508.5" cy="155.8" r="17" fill="#fff" stroke="#333" stroke-width="1.5"/>
<text x="508.5" y="159.8" text-anchor="middle" font-size="12" font-weight="bold" fill="#222">FRA</text>
<line x1="718.7" y1="181.3" x2="699.4" y2="283.3" stroke="#333" stroke-width="1.6"/>
<line x1="801.1" y1="304.6" x2="699.4" y2="283.3" stroke="#333" stroke-width="1.6"/>
<circle cx="699.4" cy="283.3" r="17" fill="#fff" stroke="#333" stroke-width="1.5"/>
<text x="699.4" y="287.3" text-anchor="middle" font-size="12" font-weight="bold" fill="#222">MAR</text>
<line x1="830.0" y1="450.0" x2="744.2" y2="508.5" stroke="#333" stroke-width="1.6"/>
<line x1="801.1" y1="595.4" x2="744.2" y2="508.5" stroke="#333" stroke-width="1.6"/>
<circle cx="744.2" cy="508.5" r="17" fill="#fff" stroke="#333" stroke-width="1.5"/>
<text x="744.2" y="512.5" text-anchor="middle" font-size="12" font-weight="bold" fill="#222">ESP</text>
<line x1="718.7" y1="718.7" x2="616.7" y2="699.4" stroke="#333" stroke-width="1.6"/>
<line x1="595.4" y1="801.1" x2="616.7" y2="699.4" stroke="#333" stroke-width="1.6"/>
<circle cx="616.7" cy="699.4" r="17" fill="#fff" stroke="#333" stroke-width="1.5"/>
<text x="616.7" y="703.4" text-anchor="middle" font-size="12" font-weight="bold" fill="#222">BEL</text>
<line x1="450.0" y1="830.0" x2="391.5" y2="744.2" stroke="#333" stroke-width="1.6"/>
<line x1="304.6" y1="801.1" x2="391.5" y2="744.2" stroke="#333" stroke-width="1.6"/>
<circle cx="391.5" cy="744.2" r="17" fill="#fff" stroke="#333" stroke-width="1.5"/>
<text x="391.5" y="748.2" text-anchor="middle" font-size="12" font-weight="bold" fill="#222">NOR</text>
<line x1="181.3" y1="718.7" x2="200.6" y2="616.7" stroke="#333" stroke-width="1.6"/>
<line x1="98.9" y1="595.4" x2="200.6" y2="616.7" stroke="#333" stroke-width="1.6"/>
<circle cx="200.6" cy="616.7" r="17" fill="#fff" stroke="#333" stroke-width="1.5"/>
<text x="200.6" y="620.7" text-anchor="middle" font-size="12" font-weight="bold" fill="#222">ENG</text>
<line x1="70.0" y1="450.0" x2="155.8" y2="391.5" stroke="#333" stroke-width="1.6" stroke-dasharray="5 5"/>
<line x1="98.9" y1="304.6" x2="155.8" y2="391.5" stroke="#333" stroke-width="1.6" stroke-dasharray="5 5"/>
<circle cx="155.8" cy="391.5" r="17" fill="#fff" stroke="#333" stroke-width="1.5"/>
<text x="155.8" y="395.5" text-anchor="middle" font-size="12" font-weight="bold" fill="#222">ARG</text>
<line x1="181.3" y1="181.3" x2="283.3" y2="200.6" stroke="#333" stroke-width="1.6" stroke-dasharray="5 5"/>
<line x1="304.6" y1="98.9" x2="283.3" y2="200.6" stroke="#333" stroke-width="1.6" stroke-dasharray="5 5"/>
<circle cx="283.3" cy="200.6" r="17" fill="#fff" stroke="#333" stroke-width="1.5"/>
<text x="283.3" y="204.6" text-anchor="middle" font-size="12" font-weight="bold" fill="#222">COL</text>
<line x1="508.5" y1="155.8" x2="566.7" y2="275.4" stroke="#333" stroke-width="1.6" stroke-dasharray="5 5"/>
<line x1="699.4" y1="283.3" x2="566.7" y2="275.4" stroke="#333" stroke-width="1.6" stroke-dasharray="5 5"/>
<circle cx="566.7" cy="275.4" r="17" fill="#fff" stroke="#333" stroke-width="1.5"/>
<text x="566.7" y="279.4" text-anchor="middle" font-size="12" font-weight="bold" fill="#222">FRA</text>
<line x1="744.2" y1="508.5" x2="624.6" y2="566.7" stroke="#333" stroke-width="1.6" stroke-dasharray="5 5"/>
<line x1="616.7" y1="699.4" x2="624.6" y2="566.7" stroke="#333" stroke-width="1.6" stroke-dasharray="5 5"/>
<circle cx="624.6" cy="566.7" r="17" fill="#fff" stroke="#333" stroke-width="1.5"/>
<text x="624.6" y="570.7" text-anchor="middle" font-size="12" font-weight="bold" fill="#222">ESP</text>
<line x1="391.5" y1="744.2" x2="333.3" y2="624.6" stroke="#333" stroke-width="1.6" stroke-dasharray="5 5"/>
<line x1="200.6" y1="616.7" x2="333.3" y2="624.6" stroke="#333" stroke-width="1.6" stroke-dasharray="5 5"/>
<circle cx="333.3" cy="624.6" r="17" fill="#fff" stroke="#333" stroke-width="1.5"/>
<text x="333.3" y="628.6" text-anchor="middle" font-size="12" font-weight="bold" fill="#222">ENG</text>
<line x1="155.8" y1="391.5" x2="275.4" y2="333.3" stroke="#333" stroke-width="1.6" stroke-dasharray="5 5"/>
<line x1="283.3" y1="200.6" x2="275.4" y2="333.3" stroke="#333" stroke-width="1.6" stroke-dasharray="5 5"/>
<circle cx="275.4" cy="333.3" r="17" fill="#fff" stroke="#333" stroke-width="1.5"/>
<text x="275.4" y="337.3" text-anchor="middle" font-size="12" font-weight="bold" fill="#222">ARG</text>
<line x1="566.7" y1="275.4" x2="567.7" y2="426.6" stroke="#333" stroke-width="1.6" stroke-dasharray="5 5"/>
<line x1="624.6" y1="566.7" x2="567.7" y2="426.6" stroke="#333" stroke-width="1.6" stroke-dasharray="5 5"/>
<circle cx="567.7" cy="426.6" r="17" fill="#fff" stroke="#333" stroke-width="1.5"/>
<text x="567.7" y="430.6" text-anchor="middle" font-size="12" font-weight="bold" fill="#222">ESP</text>
<line x1="333.3" y1="624.6" x2="332.3" y2="473.4" stroke="#333" stroke-width="1.6" stroke-dasharray="5 5"/>
<line x1="275.4" y1="333.3" x2="332.3" y2="473.4" stroke="#333" stroke-width="1.6" stroke-dasharray="5 5"/>
<circle cx="332.3" cy="473.4" r="17" fill="#fff" stroke="#333" stroke-width="1.5"/>
<text x="332.3" y="477.4" text-anchor="middle" font-size="12" font-weight="bold" fill="#222">ARG</text>
<line x1="567.7" y1="426.6" x2="457.8" y2="489.2" stroke="#c9a227" stroke-width="3" stroke-dasharray="5 5"/>
<line x1="332.3" y1="473.4" x2="457.8" y2="489.2" stroke="#c9a227" stroke-width="3" stroke-dasharray="5 5"/>
<circle cx="457.8" cy="489.2" r="22" fill="#c9a227" stroke="#333" stroke-width="1.5"/>
<text x="457.8" y="493.2" text-anchor="middle" font-size="13" font-weight="bold" fill="#222">ESP</text>
<text x="450.0" y="520.0" text-anchor="middle" font-size="15" fill="#c9a227" font-weight="bold">predicted champion: Spain</text>
</svg>